<svg xmlns="http://www.w3.org/2000/svg" viewBox="0 0 32 32">
  <defs>
    <linearGradient id="grad" x1="0%" y1="0%" x2="100%" y2="100%">
      <stop offset="0%" style="stop-color:#f43f5e"/>
      <stop offset="100%" style="stop-color:#fb923c"/>
    </linearGradient>
  </defs>
  <rect width="32" height="32" rx="8" fill="url(#grad)"/>
  <g fill="none" stroke="white" stroke-width="1.5" stroke-linecap="round" stroke-linejoin="round">
    <path d="M18 22h-6"/>
    <path d="M22 18h-10"/>
    <path d="M5 28h18a1 1 0 0 0 1-1V5a1 1 0 0 0-1-1H9a1 1 0 0 0-1 1v22a1 1 0 0 1-2 0v-9a1 1 0 0 1 1-1h2"/>
    <rect x="11" y="7" width="6" height="3" rx="0.5" fill="white" stroke="none"/>
  </g>
</svg>
