<svg viewBox="0 0 32 32" xmlns="http://www.w3.org/2000/svg" xmlns:xlink="http://www.w3.org/1999/xlink"><linearGradient id="a" x1="0%" x2="100%" y1="0%" y2="100%"><stop offset="0" stop-color="#f43f5e"/><stop offset="1" stop-color="#fb923c"/></linearGradient><rect fill="url(#a)" height="32" rx="8" width="32"/><g fill="none" stroke="#fff" stroke-linecap="round" stroke-linejoin="round" stroke-width="1.5"><path d="m18 22h-6"/><path d="m22 18h-10"/><path d="m5 28h18a1 1 0 0 0 1-1v-22a1 1 0 0 0 -1-1h-14a1 1 0 0 0 -1 1v22a1 1 0 0 1 -2 0v-9a1 1 0 0 1 1-1h2"/><rect fill="#fff" height="3" rx=".5" stroke="none" width="6" x="11" y="7"/></g></svg>